<svg width="100" height="25" viewBox="0 0 100 25" fill="none" xmlns="http://www.w3.org/2000/svg">
<path d="M0.564453 2.08008C0.564453 1.74023 0.675781 1.45312 0.898438 1.21875C1.13281 0.984375 1.41406 0.867188 1.74219 0.867188C2.08203 0.867188 2.35742 0.984375 2.56836 1.21875C2.79102 1.45312 2.90234 1.74023 2.90234 2.08008V11.168C3.125 10.5703 3.44141 10.0254 3.85156 9.5332C4.27344 9.0293 4.75977 8.5957 5.31055 8.23242C5.87305 7.85742 6.48242 7.57031 7.13867 7.37109C7.79492 7.16016 8.46875 7.05469 9.16016 7.05469C10.3438 7.05469 11.457 7.27734 12.5 7.72266C13.543 8.16797 14.4512 8.77734 15.2246 9.55078C15.998 10.3242 16.6074 11.2324 17.0527 12.2754C17.498 13.3184 17.7207 14.4375 17.7207 15.6328C17.7207 16.8164 17.498 17.9297 17.0527 18.9727C16.6074 20.0156 15.998 20.9238 15.2246 21.6973C14.4512 22.4707 13.543 23.0859 12.5 23.543C11.457 23.9883 10.3438 24.2109 9.16016 24.2109C7.97656 24.2109 6.86328 23.9883 5.82031 23.543C4.77734 23.0859 3.86328 22.4707 3.07812 21.6973C2.30469 20.9238 1.68945 20.0215 1.23242 18.9902C0.787109 17.9473 0.564453 16.834 0.564453 15.6504V2.08008ZM2.90234 15.6328C2.90234 16.4766 3.06641 17.2793 3.39453 18.041C3.72266 18.791 4.16797 19.4531 4.73047 20.0273C5.29297 20.5898 5.95508 21.0352 6.7168 21.3633C7.47852 21.6914 8.29297 21.8555 9.16016 21.8555C10.0391 21.8555 10.8535 21.6914 11.6035 21.3633C12.3652 21.0352 13.0273 20.5898 13.5898 20.0273C14.1523 19.4531 14.5918 18.791 14.9082 18.041C15.2363 17.2793 15.4004 16.4766 15.4004 15.6328C15.4004 14.7656 15.2363 13.957 14.9082 13.207C14.5918 12.4453 14.1523 11.7832 13.5898 11.2207C13.0273 10.6582 12.3652 10.2188 11.6035 9.90234C10.8535 9.57422 10.0391 9.41016 9.16016 9.41016C8.29297 9.41016 7.47852 9.57422 6.7168 9.90234C5.95508 10.2188 5.29297 10.6582 4.73047 11.2207C4.16797 11.7832 3.72266 12.4453 3.39453 13.207C3.06641 13.957 2.90234 14.7656 2.90234 15.6328ZM21.8867 16.7051C21.9805 17.4434 22.1973 18.1348 22.5371 18.7793C22.8887 19.4121 23.334 19.9688 23.873 20.4492C24.4121 20.918 25.0215 21.2871 25.7012 21.5566C26.3926 21.8262 27.1191 21.9609 27.8809 21.9609C28.2324 21.9609 28.543 21.9492 28.8125 21.9258C29.0938 21.8906 29.3516 21.8438 29.5859 21.7852C29.832 21.7148 30.0664 21.627 30.2891 21.5215C30.5234 21.416 30.7637 21.293 31.0098 21.1523C31.1387 21.0703 31.2617 21.0176 31.3789 20.9941C31.5078 20.959 31.625 20.9414 31.7305 20.9414C32.0586 20.9414 32.3281 21.0703 32.5391 21.3281C32.7617 21.5859 32.873 21.8672 32.873 22.1719C32.873 22.3477 32.8262 22.5234 32.7324 22.6992C32.6504 22.8633 32.5098 23.0039 32.3105 23.1211C32.0059 23.2969 31.6953 23.4551 31.3789 23.5957C31.0742 23.7363 30.7461 23.8535 30.3945 23.9473C30.043 24.0293 29.6621 24.0938 29.252 24.1406C28.8418 24.1875 28.3848 24.2109 27.8809 24.2109C26.6973 24.2109 25.584 23.9883 24.541 23.543C23.498 23.0859 22.584 22.4707 21.7988 21.6973C21.0254 20.9238 20.4102 20.0156 19.9531 18.9727C19.5078 17.9297 19.2852 16.8164 19.2852 15.6328C19.2852 14.4492 19.5078 13.3359 19.9531 12.293C20.4102 11.25 21.0254 10.3418 21.7988 9.56836C22.584 8.7832 23.498 8.16797 24.541 7.72266C25.584 7.26562 26.6973 7.03711 27.8809 7.03711C29.0527 7.03711 30.1602 7.26562 31.2031 7.72266C32.2461 8.16797 33.1543 8.77734 33.9277 9.55078C34.7129 10.3242 35.334 11.2324 35.791 12.2754C36.248 13.3066 36.4824 14.4082 36.4941 15.5801C36.4941 15.8965 36.3887 16.166 36.1777 16.3887C35.9668 16.5996 35.6914 16.7051 35.3516 16.7051H21.8867ZM34.1035 14.7363C34.0098 13.9629 33.7871 13.248 33.4355 12.5918C33.084 11.9238 32.6328 11.3496 32.082 10.8691C31.5312 10.377 30.8984 9.99023 30.1836 9.70898C29.4805 9.42773 28.7246 9.28711 27.916 9.28711C27.1074 9.28711 26.3457 9.43359 25.6309 9.72656C24.9277 10.0078 24.3066 10.3945 23.7676 10.8867C23.2285 11.3789 22.7891 11.959 22.4492 12.627C22.1094 13.2832 21.8984 13.9863 21.8164 14.7363H34.1035ZM40.625 16.7051C40.7188 17.4434 40.9355 18.1348 41.2754 18.7793C41.627 19.4121 42.0723 19.9688 42.6113 20.4492C43.1504 20.918 43.7598 21.2871 44.4395 21.5566C45.1309 21.8262 45.8574 21.9609 46.6191 21.9609C46.9707 21.9609 47.2812 21.9492 47.5508 21.9258C47.832 21.8906 48.0898 21.8438 48.3242 21.7852C48.5703 21.7148 48.8047 21.627 49.0273 21.5215C49.2617 21.416 49.502 21.293 49.748 21.1523C49.877 21.0703 50 21.0176 50.1172 20.9941C50.2461 20.959 50.3633 20.9414 50.4688 20.9414C50.7969 20.9414 51.0664 21.0703 51.2773 21.3281C51.5 21.5859 51.6113 21.8672 51.6113 22.1719C51.6113 22.3477 51.5645 22.5234 51.4707 22.6992C51.3887 22.8633 51.248 23.0039 51.0488 23.1211C50.7441 23.2969 50.4336 23.4551 50.1172 23.5957C49.8125 23.7363 49.4844 23.8535 49.1328 23.9473C48.7812 24.0293 48.4004 24.0938 47.9902 24.1406C47.5801 24.1875 47.123 24.2109 46.6191 24.2109C45.4355 24.2109 44.3223 23.9883 43.2793 23.543C42.2363 23.0859 41.3223 22.4707 40.5371 21.6973C39.7637 20.9238 39.1484 20.0156 38.6914 18.9727C38.2461 17.9297 38.0234 16.8164 38.0234 15.6328C38.0234 14.4492 38.2461 13.3359 38.6914 12.293C39.1484 11.25 39.7637 10.3418 40.5371 9.56836C41.3223 8.7832 42.2363 8.16797 43.2793 7.72266C44.3223 7.26562 45.4355 7.03711 46.6191 7.03711C47.791 7.03711 48.8984 7.26562 49.9414 7.72266C50.9844 8.16797 51.8926 8.77734 52.666 9.55078C53.4512 10.3242 54.0723 11.2324 54.5293 12.2754C54.9863 13.3066 55.2207 14.4082 55.2324 15.5801C55.2324 15.8965 55.127 16.166 54.916 16.3887C54.7051 16.5996 54.4297 16.7051 54.0898 16.7051H40.625ZM52.8418 14.7363C52.748 13.9629 52.5254 13.248 52.1738 12.5918C51.8223 11.9238 51.3711 11.3496 50.8203 10.8691C50.2695 10.377 49.6367 9.99023 48.9219 9.70898C48.2188 9.42773 47.4629 9.28711 46.6543 9.28711C45.8457 9.28711 45.084 9.43359 44.3691 9.72656C43.666 10.0078 43.0449 10.3945 42.5059 10.8867C41.9668 11.3789 41.5273 11.959 41.1875 12.627C40.8477 13.2832 40.6367 13.9863 40.5547 14.7363H52.8418ZM57.4824 3.16992C57.4824 2.8418 57.5996 2.56055 57.834 2.32617C58.0684 2.0918 58.3438 1.97461 58.6602 1.97461C58.9883 1.97461 59.2695 2.0918 59.5039 2.32617C59.75 2.54883 59.873 2.83008 59.873 3.16992V7.19531H67.625C67.9531 7.19531 68.2344 7.3125 68.4688 7.54688C68.7031 7.78125 68.8203 8.0625 68.8203 8.39062C68.8203 8.69531 68.7031 8.95898 68.4688 9.18164C68.2461 9.4043 67.9648 9.51562 67.625 9.51562H59.873V15.8262C59.873 16.6816 60.0312 17.4785 60.3477 18.2168C60.6758 18.9551 61.1211 19.5996 61.6836 20.1504C62.2461 20.6895 62.9023 21.1172 63.6523 21.4336C64.4141 21.7383 65.2344 21.8906 66.1133 21.8906C66.8867 21.8906 67.6074 21.7734 68.2754 21.5391C68.9434 21.3047 69.5762 20.9238 70.1738 20.3965C70.3027 20.291 70.4375 20.2031 70.5781 20.1328C70.7188 20.0508 70.8887 20.0098 71.0879 20.0098C71.3574 20.0098 71.5977 20.1211 71.8086 20.3438C72.0195 20.5547 72.125 20.8125 72.125 21.1172C72.125 21.293 72.084 21.4688 72.002 21.6445C71.9316 21.8203 71.8262 21.9727 71.6855 22.1016C70.9473 22.8047 70.1035 23.3379 69.1543 23.7012C68.2168 24.0527 67.2031 24.2285 66.1133 24.2285C64.918 24.2285 63.793 24.0176 62.7383 23.5957C61.6953 23.1621 60.7812 22.5703 59.9961 21.8203C59.2227 21.0586 58.6074 20.168 58.1504 19.1484C57.7051 18.1172 57.4824 17.0039 57.4824 15.8086V3.16992ZM80.3164 21.7148C80.6562 21.7148 80.9316 21.8262 81.1426 22.0488C81.3652 22.2715 81.4766 22.5469 81.4766 22.875C81.4766 23.2148 81.3711 23.4902 81.1602 23.7012C80.9492 23.9121 80.6738 24.0176 80.334 24.0176C79.502 24.0176 78.7344 23.877 78.0312 23.5957C77.3281 23.3145 76.7188 22.916 76.2031 22.4004C75.6875 21.873 75.2832 21.2461 74.9902 20.5195C74.709 19.7812 74.5684 18.9609 74.5684 18.0586V2.15039C74.5684 1.81055 74.6738 1.5293 74.8848 1.30664C75.1074 1.07227 75.3828 0.955078 75.7109 0.955078C76.0273 0.955078 76.3027 1.07227 76.5371 1.30664C76.7832 1.5293 76.9062 1.81055 76.9062 2.15039V18.0234C76.9062 19.1953 77.2051 20.1035 77.8027 20.748C78.4121 21.3926 79.25 21.7148 80.3164 21.7148ZM85.2383 16.7051C85.332 17.4434 85.5488 18.1348 85.8887 18.7793C86.2402 19.4121 86.6855 19.9688 87.2246 20.4492C87.7637 20.918 88.373 21.2871 89.0527 21.5566C89.7441 21.8262 90.4707 21.9609 91.2324 21.9609C91.584 21.9609 91.8945 21.9492 92.1641 21.9258C92.4453 21.8906 92.7031 21.8438 92.9375 21.7852C93.1836 21.7148 93.418 21.627 93.6406 21.5215C93.875 21.416 94.1152 21.293 94.3613 21.1523C94.4902 21.0703 94.6133 21.0176 94.7305 20.9941C94.8594 20.959 94.9766 20.9414 95.082 20.9414C95.4102 20.9414 95.6797 21.0703 95.8906 21.3281C96.1133 21.5859 96.2246 21.8672 96.2246 22.1719C96.2246 22.3477 96.1777 22.5234 96.084 22.6992C96.002 22.8633 95.8613 23.0039 95.6621 23.1211C95.3574 23.2969 95.0469 23.4551 94.7305 23.5957C94.4258 23.7363 94.0977 23.8535 93.7461 23.9473C93.3945 24.0293 93.0137 24.0938 92.6035 24.1406C92.1934 24.1875 91.7363 24.2109 91.2324 24.2109C90.0488 24.2109 88.9355 23.9883 87.8926 23.543C86.8496 23.0859 85.9355 22.4707 85.1504 21.6973C84.377 20.9238 83.7617 20.0156 83.3047 18.9727C82.8594 17.9297 82.6367 16.8164 82.6367 15.6328C82.6367 14.4492 82.8594 13.3359 83.3047 12.293C83.7617 11.25 84.377 10.3418 85.1504 9.56836C85.9355 8.7832 86.8496 8.16797 87.8926 7.72266C88.9355 7.26562 90.0488 7.03711 91.2324 7.03711C92.4043 7.03711 93.5117 7.26562 94.5547 7.72266C95.5977 8.16797 96.5059 8.77734 97.2793 9.55078C98.0645 10.3242 98.6855 11.2324 99.1426 12.2754C99.5996 13.3066 99.834 14.4082 99.8457 15.5801C99.8457 15.8965 99.7402 16.166 99.5293 16.3887C99.3184 16.5996 99.043 16.7051 98.7031 16.7051H85.2383ZM97.4551 14.7363C97.3613 13.9629 97.1387 13.248 96.7871 12.5918C96.4355 11.9238 95.9844 11.3496 95.4336 10.8691C94.8828 10.377 94.25 9.99023 93.5352 9.70898C92.832 9.42773 92.0762 9.28711 91.2676 9.28711C90.459 9.28711 89.6973 9.43359 88.9824 9.72656C88.2793 10.0078 87.6582 10.3945 87.1191 10.8867C86.5801 11.3789 86.1406 11.959 85.8008 12.627C85.4609 13.2832 85.25 13.9863 85.168 14.7363H97.4551Z" fill="black"/>
</svg>
