<svg width="216" height="54" viewBox="0 0 216 54" fill="none" xmlns="http://www.w3.org/2000/svg">
<rect x="0.5" y="0.5" width="215" height="53" rx="15.5" fill="url(#paint0_linear_126_2)" stroke="url(#paint1_linear_126_2)"/>
<path d="M59.36 35.24C57.68 35.24 56.224 34.888 54.992 34.184C53.76 33.464 52.816 32.488 52.16 31.256C51.504 30.008 51.176 28.584 51.176 26.984C51.176 25.384 51.504 23.968 52.16 22.736C52.816 21.488 53.76 20.512 54.992 19.808C56.224 19.088 57.68 18.728 59.36 18.728C60.48 18.728 61.544 18.888 62.552 19.208C63.56 19.512 64.464 19.968 65.264 20.576L64.328 22.4C63.592 21.904 62.808 21.52 61.976 21.248C61.144 20.976 60.272 20.84 59.36 20.84C58.192 20.84 57.176 21.096 56.312 21.608C55.464 22.12 54.8 22.84 54.32 23.768C53.856 24.696 53.624 25.768 53.624 26.984C53.624 28.2 53.856 29.272 54.32 30.2C54.8 31.128 55.464 31.848 56.312 32.36C57.176 32.872 58.192 33.128 59.36 33.128C60.304 33.128 61.144 32.968 61.88 32.648C62.616 32.312 63.224 31.832 63.704 31.208V28.208H59.12V26.192H66.104V32C65.4 33.024 64.48 33.824 63.344 34.4C62.208 34.96 60.88 35.24 59.36 35.24ZM74.7073 35.24C73.5713 35.24 72.5473 35.016 71.6353 34.568C70.7393 34.104 70.0273 33.44 69.4993 32.576C68.9713 31.696 68.7073 30.624 68.7073 29.36C68.7073 28.16 68.9553 27.12 69.4513 26.24C69.9633 25.36 70.6433 24.68 71.4913 24.2C72.3553 23.72 73.3153 23.48 74.3713 23.48C75.4753 23.48 76.4353 23.696 77.2513 24.128C78.0673 24.56 78.6913 25.144 79.1233 25.88C79.5713 26.6 79.7953 27.424 79.7953 28.352C79.7953 28.624 79.7553 28.92 79.6753 29.24C79.6113 29.56 79.5233 29.816 79.4113 30.008H71.0113C71.0913 30.728 71.2913 31.336 71.6113 31.832C71.9473 32.312 72.3953 32.68 72.9553 32.936C73.5153 33.176 74.1633 33.296 74.8993 33.296C75.6353 33.296 76.2833 33.184 76.8433 32.96C77.4193 32.736 77.9713 32.424 78.4993 32.024L79.3153 33.68C78.6913 34.192 77.9873 34.584 77.2033 34.856C76.4353 35.112 75.6033 35.24 74.7073 35.24ZM71.0113 28.28H77.4673C77.4833 28.232 77.4913 28.192 77.4913 28.16C77.4913 28.128 77.4913 28.088 77.4913 28.04C77.4913 27.496 77.3793 27.032 77.1553 26.648C76.9313 26.248 76.5953 25.936 76.1473 25.712C75.6993 25.488 75.1313 25.376 74.4433 25.376C73.8833 25.376 73.3633 25.496 72.8833 25.736C72.4193 25.96 72.0193 26.288 71.6833 26.72C71.3633 27.136 71.1393 27.656 71.0113 28.28ZM87.4649 35.144C86.2969 35.144 85.4249 34.872 84.8489 34.328C84.2889 33.768 84.0089 32.904 84.0089 31.736V25.64H81.5369V23.72H84.0089V20.504H86.2649V23.72H89.1929V25.64H86.2649V31.544C86.2649 32.104 86.4009 32.528 86.6729 32.816C86.9449 33.088 87.3609 33.224 87.9209 33.224C88.1129 33.224 88.3369 33.216 88.5929 33.2C88.8489 33.184 89.0489 33.16 89.1929 33.128V34.952C88.9849 35.016 88.7209 35.064 88.4009 35.096C88.0969 35.128 87.7849 35.144 87.4649 35.144ZM102.874 35.24C101.754 35.24 100.73 35.072 99.8021 34.736C98.8901 34.4 97.9861 33.848 97.0901 33.08L98.0501 31.208C98.9141 31.896 99.7301 32.392 100.498 32.696C101.282 33 102.074 33.152 102.874 33.152C104.042 33.152 104.938 32.92 105.562 32.456C106.186 31.992 106.498 31.328 106.498 30.464C106.498 29.872 106.306 29.376 105.922 28.976C105.538 28.576 104.978 28.304 104.242 28.16L101.602 27.656C100.178 27.384 99.1461 26.896 98.5061 26.192C97.8821 25.488 97.5701 24.632 97.5701 23.624C97.5701 22.728 97.7701 21.912 98.1701 21.176C98.5701 20.44 99.1861 19.848 100.018 19.4C100.85 18.952 101.89 18.728 103.138 18.728C104.098 18.728 105.018 18.864 105.898 19.136C106.778 19.408 107.634 19.88 108.466 20.552L107.506 22.424C106.802 21.928 106.106 21.536 105.418 21.248C104.73 20.96 103.986 20.816 103.186 20.816C102.13 20.816 101.338 21.04 100.81 21.488C100.282 21.936 100.018 22.544 100.018 23.312C100.018 23.904 100.21 24.368 100.594 24.704C100.978 25.04 101.538 25.28 102.274 25.424L104.914 25.928C106.322 26.184 107.346 26.72 107.986 27.536C108.626 28.336 108.946 29.232 108.946 30.224C108.946 31.728 108.426 32.944 107.386 33.872C106.346 34.784 104.842 35.24 102.874 35.24ZM116.621 35.144C115.453 35.144 114.581 34.872 114.005 34.328C113.445 33.768 113.165 32.904 113.165 31.736V25.64H110.693V23.72H113.165V20.504H115.421V23.72H118.349V25.64H115.421V31.544C115.421 32.104 115.557 32.528 115.829 32.816C116.101 33.088 116.517 33.224 117.077 33.224C117.269 33.224 117.493 33.216 117.749 33.2C118.005 33.184 118.205 33.16 118.349 33.128V34.952C118.141 35.016 117.877 35.064 117.557 35.096C117.253 35.128 116.941 35.144 116.621 35.144ZM124.657 35.24C123.825 35.24 123.089 35.112 122.449 34.856C121.825 34.584 121.337 34.2 120.985 33.704C120.633 33.192 120.457 32.584 120.457 31.88C120.457 31.16 120.633 30.56 120.985 30.08C121.337 29.6 121.833 29.224 122.473 28.952C123.113 28.68 123.841 28.496 124.657 28.4L128.641 27.896C128.545 27.048 128.225 26.424 127.681 26.024C127.137 25.624 126.465 25.424 125.665 25.424C125.121 25.424 124.553 25.536 123.961 25.76C123.385 25.968 122.769 26.304 122.113 26.768L121.273 25.064C121.897 24.568 122.585 24.184 123.337 23.912C124.089 23.624 124.873 23.48 125.689 23.48C127.417 23.48 128.721 23.872 129.601 24.656C130.481 25.44 130.921 26.6 130.921 28.136V35H128.761V33.368C128.345 33.992 127.785 34.464 127.081 34.784C126.393 35.088 125.585 35.24 124.657 35.24ZM125.185 33.344C125.937 33.344 126.569 33.192 127.081 32.888C127.609 32.584 128.001 32.184 128.257 31.688C128.529 31.192 128.665 30.672 128.665 30.128V29.624L125.305 30.056C124.473 30.168 123.841 30.352 123.409 30.608C122.977 30.848 122.761 31.24 122.761 31.784C122.761 32.28 122.969 32.664 123.385 32.936C123.817 33.208 124.417 33.344 125.185 33.344ZM134.511 35V23.72H136.671V25.712C136.975 25.008 137.399 24.48 137.943 24.128C138.503 23.76 139.127 23.576 139.815 23.576C140.039 23.576 140.239 23.592 140.415 23.624C140.607 23.64 140.751 23.672 140.847 23.72V25.856C140.639 25.808 140.423 25.776 140.199 25.76C139.991 25.728 139.783 25.712 139.575 25.712C138.775 25.712 138.103 26.048 137.559 26.72C137.031 27.376 136.767 28.32 136.767 29.552V35H134.511ZM148.121 35.144C146.953 35.144 146.081 34.872 145.505 34.328C144.945 33.768 144.665 32.904 144.665 31.736V25.64H142.193V23.72H144.665V20.504H146.921V23.72H149.849V25.64H146.921V31.544C146.921 32.104 147.057 32.528 147.329 32.816C147.601 33.088 148.017 33.224 148.577 33.224C148.769 33.224 148.993 33.216 149.249 33.2C149.505 33.184 149.705 33.16 149.849 33.128V34.952C149.641 35.016 149.377 35.064 149.057 35.096C148.753 35.128 148.441 35.144 148.121 35.144ZM157.957 35.24C156.821 35.24 155.797 35.016 154.885 34.568C153.989 34.104 153.277 33.44 152.749 32.576C152.221 31.696 151.957 30.624 151.957 29.36C151.957 28.16 152.205 27.12 152.701 26.24C153.213 25.36 153.893 24.68 154.741 24.2C155.605 23.72 156.565 23.48 157.621 23.48C158.725 23.48 159.685 23.696 160.501 24.128C161.317 24.56 161.941 25.144 162.373 25.88C162.821 26.6 163.045 27.424 163.045 28.352C163.045 28.624 163.005 28.92 162.925 29.24C162.861 29.56 162.773 29.816 162.661 30.008H154.261C154.341 30.728 154.541 31.336 154.861 31.832C155.197 32.312 155.645 32.68 156.205 32.936C156.765 33.176 157.413 33.296 158.149 33.296C158.885 33.296 159.533 33.184 160.093 32.96C160.669 32.736 161.221 32.424 161.749 32.024L162.565 33.68C161.941 34.192 161.237 34.584 160.453 34.856C159.685 35.112 158.853 35.24 157.957 35.24ZM154.261 28.28H160.717C160.733 28.232 160.741 28.192 160.741 28.16C160.741 28.128 160.741 28.088 160.741 28.04C160.741 27.496 160.629 27.032 160.405 26.648C160.181 26.248 159.845 25.936 159.397 25.712C158.949 25.488 158.381 25.376 157.693 25.376C157.133 25.376 156.613 25.496 156.133 25.736C155.669 25.96 155.269 26.288 154.933 26.72C154.613 27.136 154.389 27.656 154.261 28.28ZM170.787 35.24C169.763 35.24 168.843 35 168.027 34.52C167.211 34.04 166.563 33.36 166.083 32.48C165.619 31.6 165.387 30.56 165.387 29.36C165.387 28.144 165.619 27.104 166.083 26.24C166.563 25.36 167.211 24.68 168.027 24.2C168.843 23.72 169.763 23.48 170.787 23.48C171.683 23.48 172.467 23.656 173.139 24.008C173.811 24.344 174.331 24.8 174.699 25.376V18.968H176.955V35H174.795V33.2C174.443 33.808 173.923 34.304 173.235 34.688C172.547 35.056 171.731 35.24 170.787 35.24ZM171.243 33.272C171.947 33.272 172.563 33.112 173.091 32.792C173.619 32.472 174.035 32.024 174.339 31.448C174.643 30.856 174.795 30.16 174.795 29.36C174.795 28.56 174.643 27.872 174.339 27.296C174.035 26.704 173.619 26.248 173.091 25.928C172.563 25.608 171.955 25.448 171.267 25.448C170.563 25.448 169.939 25.608 169.395 25.928C168.867 26.248 168.451 26.704 168.147 27.296C167.859 27.872 167.715 28.56 167.715 29.36C167.715 30.16 167.867 30.856 168.171 31.448C168.475 32.024 168.891 32.472 169.419 32.792C169.947 33.112 170.555 33.272 171.243 33.272Z" fill="url(#paint2_linear_126_2)"/>
<defs>
<linearGradient id="paint0_linear_126_2" x1="108.382" y1="18.4737" x2="108.382" y2="49.7368" gradientUnits="userSpaceOnUse">
<stop stop-color="#333030"/>
<stop offset="1" stop-color="#1F1F1F"/>
</linearGradient>
<linearGradient id="paint1_linear_126_2" x1="108" y1="54" x2="108" y2="-2.41399e-06" gradientUnits="userSpaceOnUse">
<stop stop-color="#212121"/>
<stop offset="1" stop-color="#454545"/>
</linearGradient>
<linearGradient id="paint2_linear_126_2" x1="108" y1="27" x2="108" y2="35" gradientUnits="userSpaceOnUse">
<stop stop-color="#F2F2F2"/>
<stop offset="1" stop-color="#8C8C8C"/>
</linearGradient>
</defs>
</svg>
