<svg width="399" height="51" viewBox="0 0 399 51" fill="none" xmlns="http://www.w3.org/2000/svg">
<g filter="url(#filter0_d_120_58)">
<path d="M15.968 33.48C13.76 33.48 11.744 33.144 9.92 32.472C8.096 31.8 6.288 30.68 4.496 29.112L6.272 25.848C8 27.256 9.632 28.28 11.168 28.92C12.704 29.528 14.304 29.832 15.968 29.832C18.432 29.832 20.336 29.336 21.68 28.344C23.024 27.32 23.696 25.88 23.696 24.024C23.696 22.744 23.28 21.688 22.448 20.856C21.648 19.992 20.464 19.4 18.896 19.08L13.376 18.024C10.592 17.512 8.576 16.552 7.328 15.144C6.08 13.704 5.456 12.008 5.456 10.056C5.456 8.296 5.856 6.696 6.656 5.256C7.456 3.816 8.672 2.664 10.304 1.8C11.936 0.903998 13.968 0.455998 16.4 0.455998C18.32 0.455998 20.16 0.743999 21.92 1.32C23.68 1.864 25.36 2.808 26.96 4.152L25.184 7.416C23.808 6.392 22.432 5.592 21.056 5.016C19.68 4.408 18.16 4.104 16.496 4.104C14.256 4.104 12.56 4.6 11.408 5.592C10.256 6.552 9.68 7.864 9.68 9.528C9.68 10.808 10.08 11.816 10.88 12.552C11.712 13.256 12.912 13.768 14.48 14.088L20 15.144C22.752 15.656 24.752 16.712 26 18.312C27.28 19.912 27.92 21.688 27.92 23.64C27.92 26.552 26.88 28.92 24.8 30.744C22.752 32.568 19.808 33.48 15.968 33.48ZM34.1983 33V0.935998H38.0863V13.752C38.7903 12.568 39.7663 11.64 41.0143 10.968C42.2943 10.296 43.8463 9.96 45.6703 9.96C48.2623 9.96 50.2943 10.696 51.7663 12.168C53.2383 13.64 53.9743 15.96 53.9743 19.128V33H50.0863V19.56C50.0863 17.384 49.6383 15.816 48.7423 14.856C47.8783 13.864 46.5343 13.368 44.7103 13.368C42.5983 13.368 40.9663 14.104 39.8143 15.576C38.6623 17.016 38.0863 18.984 38.0863 21.48V33H34.1983ZM68.7733 33.48C67.0453 33.48 65.5413 33.224 64.2613 32.712C63.0133 32.168 62.0373 31.4 61.3333 30.408C60.6293 29.384 60.2773 28.168 60.2773 26.76C60.2773 25.352 60.6293 24.168 61.3333 23.208C62.0373 22.248 63.0293 21.496 64.3093 20.952C65.5893 20.376 67.0773 19.992 68.7733 19.8L76.9333 18.792C76.7413 16.936 76.0693 15.576 74.9173 14.712C73.7973 13.816 72.3573 13.368 70.5973 13.368C69.5093 13.368 68.3733 13.608 67.1893 14.088C66.0053 14.536 64.7733 15.224 63.4933 16.152L61.9093 13.176C63.0933 12.184 64.4213 11.4 65.8933 10.824C67.3973 10.248 68.9653 9.96 70.5973 9.96C73.9893 9.96 76.5493 10.744 78.2773 12.312C80.0053 13.88 80.8693 16.2 80.8693 19.272V33H77.1253V29.496C76.2933 30.84 75.1573 31.848 73.7173 32.52C72.2773 33.16 70.6293 33.48 68.7733 33.48ZM69.4933 30.072C71.1253 30.072 72.5013 29.752 73.6213 29.112C74.7413 28.44 75.5733 27.576 76.1173 26.52C76.6933 25.432 76.9813 24.296 76.9813 23.112V22.008L69.7812 22.92C67.9893 23.144 66.6133 23.528 65.6533 24.072C64.7253 24.584 64.2613 25.448 64.2613 26.664C64.2613 27.752 64.7253 28.6 65.6533 29.208C66.5813 29.784 67.8613 30.072 69.4933 30.072ZM88.4326 33V10.44H92.1766V14.568C92.7526 13.128 93.6006 12.04 94.7206 11.304C95.8726 10.536 97.1686 10.152 98.6086 10.152C99.0566 10.152 99.4566 10.184 99.8086 10.248C100.193 10.28 100.497 10.344 100.721 10.44V14.088C100.305 13.992 99.8886 13.928 99.4726 13.896C99.0566 13.832 98.6406 13.8 98.2246 13.8C96.5286 13.8 95.1206 14.536 94.0006 16.008C92.8806 17.448 92.3206 19.48 92.3206 22.104V33H88.4326ZM115.023 33.48C112.783 33.48 110.767 33.016 108.975 32.088C107.183 31.16 105.775 29.832 104.751 28.104C103.727 26.344 103.215 24.216 103.215 21.72C103.215 19.32 103.711 17.24 104.703 15.48C105.695 13.72 107.039 12.36 108.735 11.4C110.431 10.44 112.319 9.96 114.399 9.96C116.607 9.96 118.511 10.392 120.111 11.256C121.711 12.12 122.943 13.288 123.807 14.76C124.671 16.2 125.103 17.848 125.103 19.704C125.103 20.216 125.023 20.792 124.863 21.432C124.735 22.04 124.559 22.536 124.335 22.92H107.199C107.359 24.456 107.775 25.768 108.447 26.856C109.151 27.912 110.095 28.712 111.279 29.256C112.463 29.8 113.823 30.072 115.359 30.072C116.863 30.072 118.175 29.848 119.295 29.4C120.447 28.92 121.551 28.248 122.607 27.384L124.143 30.312C122.927 31.368 121.551 32.168 120.015 32.712C118.479 33.224 116.815 33.48 115.023 33.48ZM107.199 19.656H121.071C121.103 19.592 121.119 19.528 121.119 19.464C121.119 19.4 121.119 19.304 121.119 19.176C121.119 18.024 120.879 17.016 120.399 16.152C119.919 15.256 119.183 14.568 118.191 14.088C117.231 13.608 116.015 13.368 114.543 13.368C113.391 13.368 112.303 13.624 111.279 14.136C110.255 14.616 109.391 15.32 108.687 16.248C107.983 17.176 107.487 18.312 107.199 19.656ZM144.577 42.024C143.649 42.024 142.721 41.896 141.793 41.64C140.897 41.416 140.097 41.096 139.393 40.68L140.545 37.608C141.249 37.96 141.921 38.216 142.561 38.376C143.201 38.568 143.793 38.664 144.337 38.664C145.041 38.664 145.713 38.488 146.353 38.136C146.993 37.816 147.617 37.272 148.225 36.504C148.833 35.768 149.441 34.776 150.049 33.528L140.641 10.44H144.817L151.969 28.92L159.121 10.44H163.297L154.081 33C153.121 35.368 152.129 37.208 151.105 38.52C150.081 39.832 149.025 40.744 147.937 41.256C146.849 41.768 145.729 42.024 144.577 42.024ZM176.894 33.48C174.622 33.48 172.606 33 170.846 32.04C169.086 31.048 167.71 29.672 166.718 27.912C165.726 26.152 165.23 24.088 165.23 21.72C165.23 19.352 165.726 17.288 166.718 15.528C167.71 13.768 169.086 12.408 170.846 11.448C172.606 10.456 174.622 9.96 176.894 9.96C179.198 9.96 181.214 10.456 182.942 11.448C184.702 12.408 186.078 13.768 187.07 15.528C188.062 17.288 188.558 19.352 188.558 21.72C188.558 24.088 188.062 26.152 187.07 27.912C186.078 29.672 184.702 31.048 182.942 32.04C181.214 33 179.198 33.48 176.894 33.48ZM176.894 30.072C178.43 30.072 179.774 29.736 180.926 29.064C182.078 28.392 182.974 27.432 183.614 26.184C184.254 24.936 184.574 23.448 184.574 21.72C184.574 19.992 184.254 18.504 183.614 17.256C182.974 16.008 182.078 15.048 180.926 14.376C179.774 13.704 178.43 13.368 176.894 13.368C175.358 13.368 174.014 13.704 172.862 14.376C171.71 15.048 170.814 16.008 170.174 17.256C169.534 18.504 169.214 19.992 169.214 21.72C169.214 23.448 169.534 24.936 170.174 26.184C170.814 27.432 171.71 28.392 172.862 29.064C174.014 29.736 175.358 30.072 176.894 30.072ZM203.143 33.48C200.551 33.48 198.519 32.744 197.047 31.272C195.575 29.8 194.839 27.48 194.839 24.312V10.44H198.727V23.88C198.727 26.056 199.159 27.64 200.023 28.632C200.919 29.592 202.279 30.072 204.103 30.072C206.215 30.072 207.847 29.352 208.999 27.912C210.151 26.44 210.727 24.456 210.727 21.96V10.44H214.615V33H210.871V29.448C210.199 30.696 209.207 31.688 207.895 32.424C206.583 33.128 204.999 33.48 203.143 33.48ZM222.214 33V10.44H225.958V14.568C226.534 13.128 227.382 12.04 228.502 11.304C229.654 10.536 230.95 10.152 232.39 10.152C232.838 10.152 233.238 10.184 233.59 10.248C233.974 10.28 234.278 10.344 234.502 10.44V14.088C234.086 13.992 233.67 13.928 233.254 13.896C232.838 13.832 232.422 13.8 232.006 13.8C230.31 13.8 228.902 14.536 227.782 16.008C226.662 17.448 226.102 19.48 226.102 22.104V33H222.214ZM259.429 33.48C257.701 33.48 256.101 33.224 254.629 32.712C253.157 32.168 251.717 31.384 250.309 30.36L252.085 27.192C253.461 28.152 254.725 28.872 255.877 29.352C257.061 29.832 258.261 30.072 259.477 30.072C261.269 30.072 262.613 29.8 263.509 29.256C264.405 28.68 264.853 27.848 264.853 26.76C264.853 25.864 264.581 25.208 264.037 24.792C263.525 24.344 262.597 23.992 261.253 23.736L257.173 22.968C255.125 22.584 253.589 21.896 252.565 20.904C251.541 19.912 251.029 18.632 251.029 17.064C251.029 15.784 251.349 14.616 251.989 13.56C252.661 12.472 253.637 11.608 254.917 10.968C256.197 10.296 257.797 9.96 259.717 9.96C261.349 9.96 262.869 10.216 264.277 10.728C265.717 11.208 266.997 11.864 268.117 12.696L266.389 15.768C265.429 15.064 264.405 14.488 263.317 14.04C262.229 13.592 261.077 13.368 259.861 13.368C258.357 13.368 257.173 13.64 256.309 14.184C255.445 14.696 255.013 15.512 255.013 16.632C255.013 17.368 255.269 17.944 255.781 18.36C256.293 18.776 257.157 19.096 258.373 19.32L262.453 20.088C264.501 20.472 266.069 21.144 267.157 22.104C268.277 23.064 268.837 24.488 268.837 26.376C268.837 28.456 268.037 30.168 266.437 31.512C264.837 32.824 262.501 33.48 259.429 33.48ZM284.256 33.288C282.016 33.288 280.336 32.76 279.216 31.704C278.128 30.616 277.584 28.936 277.584 26.664V13.8H272.544V10.44H277.584V4.008H281.472V10.44H287.424V13.8H281.472V26.376C281.472 27.56 281.76 28.456 282.336 29.064C282.912 29.64 283.792 29.928 284.976 29.928C285.36 29.928 285.792 29.912 286.272 29.88C286.752 29.848 287.136 29.8 287.424 29.736V32.904C287.072 33.032 286.592 33.128 285.984 33.192C285.408 33.256 284.832 33.288 284.256 33.288ZM303.551 33.48C301.279 33.48 299.263 33 297.503 32.04C295.743 31.048 294.367 29.672 293.375 27.912C292.383 26.152 291.887 24.088 291.887 21.72C291.887 19.352 292.383 17.288 293.375 15.528C294.367 13.768 295.743 12.408 297.503 11.448C299.263 10.456 301.279 9.96 303.551 9.96C305.855 9.96 307.871 10.456 309.599 11.448C311.359 12.408 312.735 13.768 313.727 15.528C314.719 17.288 315.215 19.352 315.215 21.72C315.215 24.088 314.719 26.152 313.727 27.912C312.735 29.672 311.359 31.048 309.599 32.04C307.871 33 305.855 33.48 303.551 33.48ZM303.551 30.072C305.087 30.072 306.431 29.736 307.583 29.064C308.735 28.392 309.631 27.432 310.271 26.184C310.911 24.936 311.231 23.448 311.231 21.72C311.231 19.992 310.911 18.504 310.271 17.256C309.631 16.008 308.735 15.048 307.583 14.376C306.431 13.704 305.087 13.368 303.551 13.368C302.015 13.368 300.671 13.704 299.519 14.376C298.367 15.048 297.471 16.008 296.831 17.256C296.191 18.504 295.871 19.992 295.871 21.72C295.871 23.448 296.191 24.936 296.831 26.184C297.471 27.432 298.367 28.392 299.519 29.064C300.671 29.736 302.015 30.072 303.551 30.072ZM321.495 33V10.44H325.239V14.568C325.815 13.128 326.663 12.04 327.783 11.304C328.935 10.536 330.231 10.152 331.671 10.152C332.119 10.152 332.519 10.184 332.871 10.248C333.255 10.28 333.559 10.344 333.783 10.44V14.088C333.367 13.992 332.951 13.928 332.535 13.896C332.119 13.832 331.703 13.8 331.287 13.8C329.591 13.8 328.183 14.536 327.063 16.008C325.943 17.448 325.383 19.48 325.383 22.104V33H321.495ZM339.167 33V10.44H343.055V33H339.167ZM341.087 5.448C340.383 5.448 339.807 5.24 339.359 4.824C338.911 4.376 338.687 3.816 338.687 3.144C338.687 2.472 338.911 1.928 339.359 1.512C339.807 1.096 340.383 0.887999 341.087 0.887999C341.823 0.887999 342.415 1.096 342.863 1.512C343.311 1.928 343.535 2.472 343.535 3.144C343.535 3.816 343.311 4.376 342.863 4.824C342.415 5.24 341.823 5.448 341.087 5.448ZM361.163 33.48C358.923 33.48 356.907 33.016 355.115 32.088C353.323 31.16 351.915 29.832 350.891 28.104C349.867 26.344 349.355 24.216 349.355 21.72C349.355 19.32 349.851 17.24 350.843 15.48C351.835 13.72 353.179 12.36 354.875 11.4C356.571 10.44 358.459 9.96 360.539 9.96C362.747 9.96 364.651 10.392 366.251 11.256C367.851 12.12 369.083 13.288 369.947 14.76C370.811 16.2 371.243 17.848 371.243 19.704C371.243 20.216 371.163 20.792 371.003 21.432C370.875 22.04 370.699 22.536 370.475 22.92H353.339C353.499 24.456 353.915 25.768 354.587 26.856C355.291 27.912 356.235 28.712 357.419 29.256C358.603 29.8 359.963 30.072 361.499 30.072C363.003 30.072 364.315 29.848 365.435 29.4C366.587 28.92 367.691 28.248 368.747 27.384L370.283 30.312C369.067 31.368 367.691 32.168 366.155 32.712C364.619 33.224 362.955 33.48 361.163 33.48ZM353.339 19.656H367.211C367.243 19.592 367.259 19.528 367.259 19.464C367.259 19.4 367.259 19.304 367.259 19.176C367.259 18.024 367.019 17.016 366.539 16.152C366.059 15.256 365.323 14.568 364.331 14.088C363.371 13.608 362.155 13.368 360.683 13.368C359.531 13.368 358.443 13.624 357.419 14.136C356.395 14.616 355.531 15.32 354.827 16.248C354.123 17.176 353.627 18.312 353.339 19.656ZM385.335 33.48C383.607 33.48 382.007 33.224 380.535 32.712C379.063 32.168 377.623 31.384 376.215 30.36L377.991 27.192C379.367 28.152 380.631 28.872 381.783 29.352C382.967 29.832 384.167 30.072 385.383 30.072C387.175 30.072 388.519 29.8 389.415 29.256C390.311 28.68 390.759 27.848 390.759 26.76C390.759 25.864 390.487 25.208 389.943 24.792C389.431 24.344 388.503 23.992 387.159 23.736L383.079 22.968C381.031 22.584 379.495 21.896 378.471 20.904C377.447 19.912 376.935 18.632 376.935 17.064C376.935 15.784 377.255 14.616 377.895 13.56C378.567 12.472 379.543 11.608 380.823 10.968C382.103 10.296 383.703 9.96 385.623 9.96C387.255 9.96 388.775 10.216 390.183 10.728C391.623 11.208 392.903 11.864 394.023 12.696L392.295 15.768C391.335 15.064 390.311 14.488 389.223 14.04C388.135 13.592 386.983 13.368 385.767 13.368C384.263 13.368 383.079 13.64 382.215 14.184C381.351 14.696 380.919 15.512 380.919 16.632C380.919 17.368 381.175 17.944 381.687 18.36C382.199 18.776 383.063 19.096 384.279 19.32L388.359 20.088C390.407 20.472 391.975 21.144 393.063 22.104C394.183 23.064 394.743 24.488 394.743 26.376C394.743 28.456 393.943 30.168 392.343 31.512C390.743 32.824 388.407 33.48 385.335 33.48Z" fill="url(#paint0_linear_120_58)"/>
</g>
<defs>
<filter id="filter0_d_120_58" x="0.495972" y="0.456055" width="398.247" height="49.568" filterUnits="userSpaceOnUse" color-interpolation-filters="sRGB">
<feFlood flood-opacity="0" result="BackgroundImageFix"/>
<feColorMatrix in="SourceAlpha" type="matrix" values="0 0 0 0 0 0 0 0 0 0 0 0 0 0 0 0 0 0 127 0" result="hardAlpha"/>
<feOffset dy="4"/>
<feGaussianBlur stdDeviation="2"/>
<feComposite in2="hardAlpha" operator="out"/>
<feColorMatrix type="matrix" values="0 0 0 0 0 0 0 0 0 0 0 0 0 0 0 0 0 0 0.25 0"/>
<feBlend mode="normal" in2="BackgroundImageFix" result="effect1_dropShadow_120_58"/>
<feBlend mode="normal" in="SourceGraphic" in2="effect1_dropShadow_120_58" result="shape"/>
</filter>
<linearGradient id="paint0_linear_120_58" x1="6.04494" y1="23.8173" x2="390.722" y2="25.2772" gradientUnits="userSpaceOnUse">
<stop stop-color="#B0B0B0"/>
<stop offset="0.509" stop-color="white"/>
<stop offset="1" stop-color="#B0B0B0"/>
</linearGradient>
</defs>
</svg>
