<svg width="975" height="91" viewBox="0 0 975 91" fill="none" xmlns="http://www.w3.org/2000/svg">
<g filter="url(#filter0_d_120_52)">
<path d="M4.872 65V0.871996H29.832C37.384 0.871996 43.176 2.408 47.208 5.48C51.24 8.552 53.256 13.288 53.256 19.688C53.256 25.192 51.784 29.416 48.84 32.36C45.96 35.24 41.8 37.096 36.36 37.928L56.52 65H46.824L27.624 38.504H13.128V65H4.872ZM13.128 31.496H28.2C33.768 31.496 37.928 30.632 40.68 28.904C43.496 27.112 44.904 24.072 44.904 19.784C44.904 15.432 43.592 12.392 40.968 10.664C38.344 8.872 34.088 7.976 28.2 7.976H13.128V31.496ZM86.9205 65.96C82.4405 65.96 78.4085 65.032 74.8245 63.176C71.2405 61.32 68.4245 58.664 66.3765 55.208C64.3285 51.688 63.3045 47.432 63.3045 42.44C63.3045 37.64 64.2965 33.48 66.2805 29.96C68.2645 26.44 70.9525 23.72 74.3445 21.8C77.7365 19.88 81.5125 18.92 85.6725 18.92C90.0885 18.92 93.8965 19.784 97.0965 21.512C100.297 23.24 102.761 25.576 104.489 28.52C106.217 31.4 107.081 34.696 107.081 38.408C107.081 39.432 106.921 40.584 106.601 41.864C106.345 43.08 105.993 44.072 105.545 44.84H71.2725C71.5925 47.912 72.4245 50.536 73.7685 52.712C75.1765 54.824 77.0645 56.424 79.4325 57.512C81.8005 58.6 84.5205 59.144 87.5925 59.144C90.6005 59.144 93.2245 58.696 95.4645 57.8C97.7685 56.84 99.9765 55.496 102.089 53.768L105.161 59.624C102.729 61.736 99.9765 63.336 96.9045 64.424C93.8325 65.448 90.5045 65.96 86.9205 65.96ZM71.2725 38.312H99.0165C99.0805 38.184 99.1125 38.056 99.1125 37.928C99.1125 37.8 99.1125 37.608 99.1125 37.352C99.1125 35.048 98.6325 33.032 97.6725 31.304C96.7125 29.512 95.2405 28.136 93.2565 27.176C91.3365 26.216 88.9045 25.736 85.9605 25.736C83.6565 25.736 81.4805 26.248 79.4325 27.272C77.3845 28.232 75.6565 29.64 74.2485 31.496C72.8405 33.352 71.8485 35.624 71.2725 38.312ZM138.719 65.96C134.559 65.96 130.847 65 127.583 63.08C124.319 61.16 121.759 58.44 119.903 54.92C118.047 51.4 117.119 47.24 117.119 42.44C117.119 37.576 118.047 33.416 119.903 29.96C121.759 26.44 124.319 23.72 127.583 21.8C130.847 19.88 134.559 18.92 138.719 18.92C142.431 18.92 145.695 19.656 148.511 21.128C151.327 22.6 153.471 24.552 154.943 26.984V0.871996H162.719V65H155.231V57.416C153.823 59.976 151.679 62.056 148.799 63.656C145.919 65.192 142.559 65.96 138.719 65.96ZM140.159 59.144C143.103 59.144 145.695 58.472 147.935 57.128C150.239 55.784 152.031 53.864 153.311 51.368C154.591 48.872 155.231 45.896 155.231 42.44C155.231 38.984 154.591 36.008 153.311 33.512C152.031 31.016 150.239 29.096 147.935 27.752C145.695 26.408 143.103 25.736 140.159 25.736C137.215 25.736 134.591 26.408 132.287 27.752C130.047 29.096 128.287 31.016 127.007 33.512C125.727 36.008 125.087 38.984 125.087 42.44C125.087 45.896 125.727 48.872 127.007 51.368C128.287 53.864 130.047 55.784 132.287 57.128C134.591 58.472 137.215 59.144 140.159 59.144ZM198.952 65.96C194.472 65.96 190.44 65.032 186.856 63.176C183.272 61.32 180.456 58.664 178.408 55.208C176.36 51.688 175.336 47.432 175.336 42.44C175.336 37.64 176.328 33.48 178.312 29.96C180.296 26.44 182.984 23.72 186.376 21.8C189.768 19.88 193.544 18.92 197.704 18.92C202.12 18.92 205.928 19.784 209.128 21.512C212.328 23.24 214.792 25.576 216.52 28.52C218.248 31.4 219.112 34.696 219.112 38.408C219.112 39.432 218.952 40.584 218.632 41.864C218.376 43.08 218.024 44.072 217.576 44.84H183.304C183.624 47.912 184.456 50.536 185.8 52.712C187.208 54.824 189.096 56.424 191.464 57.512C193.832 58.6 196.552 59.144 199.624 59.144C202.632 59.144 205.256 58.696 207.496 57.8C209.8 56.84 212.008 55.496 214.12 53.768L217.192 59.624C214.76 61.736 212.008 63.336 208.936 64.424C205.864 65.448 202.536 65.96 198.952 65.96ZM183.304 38.312H211.048C211.112 38.184 211.144 38.056 211.144 37.928C211.144 37.8 211.144 37.608 211.144 37.352C211.144 35.048 210.664 33.032 209.704 31.304C208.744 29.512 207.272 28.136 205.288 27.176C203.368 26.216 200.936 25.736 197.992 25.736C195.688 25.736 193.512 26.248 191.464 27.272C189.416 28.232 187.688 29.64 186.28 31.496C184.872 33.352 183.88 35.624 183.304 38.312ZM236.543 65V26.6H226.463V19.88H236.543V13.544C236.543 9 237.631 5.672 239.807 3.56C242.047 1.384 245.407 0.295998 249.887 0.295998C251.039 0.295998 252.191 0.359997 253.343 0.487995C254.559 0.615997 255.519 0.807999 256.223 1.064V7.4C255.647 7.272 254.879 7.17599 253.919 7.112C252.959 7.048 252.095 7.016 251.327 7.016C248.959 7.016 247.199 7.624 246.047 8.84C244.895 9.992 244.319 11.752 244.319 14.12V19.88H256.223V26.6H244.319V65H236.543ZM266.24 65V19.88H274.016V65H266.24ZM270.08 9.896C268.672 9.896 267.52 9.48 266.624 8.648C265.728 7.752 265.28 6.632 265.28 5.288C265.28 3.944 265.728 2.856 266.624 2.024C267.52 1.192 268.672 0.775997 270.08 0.775997C271.552 0.775997 272.736 1.192 273.632 2.024C274.528 2.856 274.976 3.944 274.976 5.288C274.976 6.632 274.528 7.752 273.632 8.648C272.736 9.48 271.552 9.896 270.08 9.896ZM289.209 65V19.88H296.697V26.984C298.041 24.488 300.025 22.536 302.649 21.128C305.273 19.656 308.441 18.92 312.153 18.92C317.337 18.92 321.401 20.392 324.345 23.336C327.289 26.28 328.761 30.92 328.761 37.256V65H320.985V38.12C320.985 33.768 320.089 30.632 318.297 28.712C316.569 26.728 313.881 25.736 310.233 25.736C306.009 25.736 302.745 27.208 300.441 30.152C298.137 33.032 296.985 36.968 296.985 41.96V65H289.209ZM364.983 65.96C360.503 65.96 356.471 65.032 352.887 63.176C349.303 61.32 346.487 58.664 344.439 55.208C342.391 51.688 341.367 47.432 341.367 42.44C341.367 37.64 342.359 33.48 344.343 29.96C346.327 26.44 349.015 23.72 352.407 21.8C355.799 19.88 359.575 18.92 363.735 18.92C368.151 18.92 371.959 19.784 375.159 21.512C378.359 23.24 380.823 25.576 382.551 28.52C384.279 31.4 385.143 34.696 385.143 38.408C385.143 39.432 384.983 40.584 384.663 41.864C384.407 43.08 384.055 44.072 383.607 44.84H349.335C349.655 47.912 350.487 50.536 351.831 52.712C353.239 54.824 355.127 56.424 357.495 57.512C359.863 58.6 362.583 59.144 365.655 59.144C368.663 59.144 371.287 58.696 373.527 57.8C375.831 56.84 378.039 55.496 380.151 53.768L383.223 59.624C380.791 61.736 378.039 63.336 374.967 64.424C371.895 65.448 368.567 65.96 364.983 65.96ZM349.335 38.312H377.079C377.143 38.184 377.175 38.056 377.175 37.928C377.175 37.8 377.175 37.608 377.175 37.352C377.175 35.048 376.695 33.032 375.735 31.304C374.775 29.512 373.303 28.136 371.319 27.176C369.399 26.216 366.967 25.736 364.023 25.736C361.719 25.736 359.543 26.248 357.495 27.272C355.447 28.232 353.719 29.64 352.311 31.496C350.903 33.352 349.911 35.624 349.335 38.312ZM421.115 82.472V19.88H428.603V27.464C430.011 24.904 432.155 22.856 435.035 21.32C437.915 19.72 441.275 18.92 445.115 18.92C449.275 18.92 452.987 19.88 456.251 21.8C459.515 23.72 462.075 26.44 463.931 29.96C465.787 33.416 466.715 37.576 466.715 42.44C466.715 47.24 465.787 51.4 463.931 54.92C462.075 58.44 459.515 61.16 456.251 63.08C452.987 65 449.275 65.96 445.115 65.96C441.403 65.96 438.139 65.224 435.323 63.752C432.507 62.28 430.363 60.328 428.891 57.896V82.472H421.115ZM443.675 59.144C446.619 59.144 449.211 58.472 451.451 57.128C453.755 55.784 455.547 53.864 456.827 51.368C458.107 48.872 458.747 45.896 458.747 42.44C458.747 38.984 458.107 36.008 456.827 33.512C455.547 31.016 453.755 29.096 451.451 27.752C449.211 26.408 446.619 25.736 443.675 25.736C440.731 25.736 438.107 26.408 435.803 27.752C433.563 29.096 431.803 31.016 430.523 33.512C429.243 36.008 428.603 38.984 428.603 42.44C428.603 45.896 429.243 48.872 430.523 51.368C431.803 53.864 433.563 55.784 435.803 57.128C438.107 58.472 440.731 59.144 443.675 59.144ZM500.452 65.96C495.972 65.96 491.94 65.032 488.356 63.176C484.772 61.32 481.956 58.664 479.908 55.208C477.86 51.688 476.836 47.432 476.836 42.44C476.836 37.64 477.828 33.48 479.812 29.96C481.796 26.44 484.484 23.72 487.876 21.8C491.268 19.88 495.044 18.92 499.204 18.92C503.62 18.92 507.428 19.784 510.628 21.512C513.828 23.24 516.292 25.576 518.02 28.52C519.748 31.4 520.612 34.696 520.612 38.408C520.612 39.432 520.452 40.584 520.132 41.864C519.876 43.08 519.524 44.072 519.076 44.84H484.804C485.124 47.912 485.956 50.536 487.3 52.712C488.708 54.824 490.596 56.424 492.964 57.512C495.332 58.6 498.052 59.144 501.124 59.144C504.132 59.144 506.756 58.696 508.996 57.8C511.3 56.84 513.508 55.496 515.62 53.768L518.692 59.624C516.26 61.736 513.508 63.336 510.436 64.424C507.364 65.448 504.036 65.96 500.452 65.96ZM484.804 38.312H512.548C512.612 38.184 512.644 38.056 512.644 37.928C512.644 37.8 512.644 37.608 512.644 37.352C512.644 35.048 512.164 33.032 511.204 31.304C510.244 29.512 508.772 28.136 506.788 27.176C504.868 26.216 502.436 25.736 499.492 25.736C497.188 25.736 495.012 26.248 492.964 27.272C490.916 28.232 489.188 29.64 487.78 31.496C486.372 33.352 485.38 35.624 484.804 38.312ZM533.147 65V19.88H540.635V28.136C541.787 25.256 543.483 23.08 545.723 21.608C548.027 20.072 550.619 19.304 553.499 19.304C554.395 19.304 555.195 19.368 555.899 19.496C556.667 19.56 557.275 19.688 557.723 19.88V27.176C556.891 26.984 556.059 26.856 555.227 26.792C554.395 26.664 553.563 26.6 552.731 26.6C549.339 26.6 546.523 28.072 544.283 31.016C542.043 33.896 540.923 37.96 540.923 43.208V65H533.147ZM584.138 65.96C580.682 65.96 577.482 65.448 574.538 64.424C571.594 63.336 568.714 61.768 565.898 59.72L569.45 53.384C572.202 55.304 574.73 56.744 577.034 57.704C579.402 58.664 581.802 59.144 584.234 59.144C587.818 59.144 590.506 58.6 592.298 57.512C594.09 56.36 594.986 54.696 594.986 52.52C594.986 50.728 594.442 49.416 593.354 48.584C592.33 47.688 590.474 46.984 587.786 46.472L579.626 44.936C575.53 44.168 572.458 42.792 570.41 40.808C568.362 38.824 567.338 36.264 567.338 33.128C567.338 30.568 567.978 28.232 569.258 26.12C570.602 23.944 572.554 22.216 575.114 20.936C577.674 19.592 580.874 18.92 584.714 18.92C587.978 18.92 591.018 19.432 593.834 20.456C596.714 21.416 599.274 22.728 601.514 24.392L598.058 30.536C596.138 29.128 594.09 27.976 591.914 27.08C589.738 26.184 587.434 25.736 585.002 25.736C581.994 25.736 579.626 26.28 577.898 27.368C576.17 28.392 575.306 30.024 575.306 32.264C575.306 33.736 575.818 34.888 576.842 35.72C577.866 36.552 579.594 37.192 582.026 37.64L590.186 39.176C594.282 39.944 597.418 41.288 599.594 43.208C601.834 45.128 602.954 47.976 602.954 51.752C602.954 55.912 601.354 59.336 598.154 62.024C594.954 64.648 590.282 65.96 584.138 65.96ZM615.553 82.472V19.88H623.041V27.464C624.449 24.904 626.593 22.856 629.473 21.32C632.353 19.72 635.713 18.92 639.553 18.92C643.713 18.92 647.425 19.88 650.689 21.8C653.953 23.72 656.513 26.44 658.369 29.96C660.225 33.416 661.153 37.576 661.153 42.44C661.153 47.24 660.225 51.4 658.369 54.92C656.513 58.44 653.953 61.16 650.689 63.08C647.425 65 643.713 65.96 639.553 65.96C635.841 65.96 632.577 65.224 629.761 63.752C626.945 62.28 624.801 60.328 623.329 57.896V82.472H615.553ZM638.113 59.144C641.057 59.144 643.649 58.472 645.889 57.128C648.193 55.784 649.985 53.864 651.265 51.368C652.545 48.872 653.185 45.896 653.185 42.44C653.185 38.984 652.545 36.008 651.265 33.512C649.985 31.016 648.193 29.096 645.889 27.752C643.649 26.408 641.057 25.736 638.113 25.736C635.169 25.736 632.545 26.408 630.241 27.752C628.001 29.096 626.241 31.016 624.961 33.512C623.681 36.008 623.041 38.984 623.041 42.44C623.041 45.896 623.681 48.872 624.961 51.368C626.241 53.864 628.001 55.784 630.241 57.128C632.545 58.472 635.169 59.144 638.113 59.144ZM694.889 65.96C690.409 65.96 686.377 65.032 682.793 63.176C679.209 61.32 676.393 58.664 674.345 55.208C672.297 51.688 671.273 47.432 671.273 42.44C671.273 37.64 672.265 33.48 674.249 29.96C676.233 26.44 678.921 23.72 682.313 21.8C685.705 19.88 689.481 18.92 693.641 18.92C698.057 18.92 701.865 19.784 705.065 21.512C708.265 23.24 710.729 25.576 712.457 28.52C714.185 31.4 715.049 34.696 715.049 38.408C715.049 39.432 714.889 40.584 714.569 41.864C714.313 43.08 713.961 44.072 713.513 44.84H679.241C679.561 47.912 680.393 50.536 681.737 52.712C683.145 54.824 685.033 56.424 687.401 57.512C689.769 58.6 692.489 59.144 695.561 59.144C698.569 59.144 701.193 58.696 703.433 57.8C705.737 56.84 707.945 55.496 710.057 53.768L713.129 59.624C710.697 61.736 707.945 63.336 704.873 64.424C701.801 65.448 698.473 65.96 694.889 65.96ZM679.241 38.312H706.985C707.049 38.184 707.081 38.056 707.081 37.928C707.081 37.8 707.081 37.608 707.081 37.352C707.081 35.048 706.601 33.032 705.641 31.304C704.681 29.512 703.209 28.136 701.225 27.176C699.305 26.216 696.873 25.736 693.929 25.736C691.625 25.736 689.449 26.248 687.401 27.272C685.353 28.232 683.625 29.64 682.217 31.496C680.809 33.352 679.817 35.624 679.241 38.312ZM748.32 65.96C743.776 65.96 739.744 65 736.224 63.08C732.704 61.096 729.952 58.344 727.968 54.824C725.984 51.304 724.992 47.176 724.992 42.44C724.992 37.704 725.984 33.576 727.968 30.056C729.952 26.536 732.704 23.816 736.224 21.896C739.744 19.912 743.776 18.92 748.32 18.92C751.584 18.92 754.528 19.4 757.152 20.36C759.84 21.32 762.208 22.696 764.256 24.488L761.28 30.344C759.232 28.744 757.088 27.592 754.848 26.888C752.608 26.12 750.432 25.736 748.32 25.736C745.248 25.736 742.56 26.408 740.256 27.752C737.952 29.096 736.16 31.016 734.88 33.512C733.6 36.008 732.96 38.984 732.96 42.44C732.96 45.896 733.6 48.872 734.88 51.368C736.16 53.864 737.952 55.784 740.256 57.128C742.56 58.472 745.248 59.144 748.32 59.144C750.432 59.144 752.608 58.792 754.848 58.088C757.088 57.32 759.232 56.136 761.28 54.536L764.256 60.392C762.208 62.184 759.84 63.56 757.152 64.52C754.528 65.48 751.584 65.96 748.32 65.96ZM794.574 65.576C790.094 65.576 786.734 64.52 784.494 62.408C782.318 60.232 781.23 56.872 781.23 52.328V26.6H771.15V19.88H781.23V7.016H789.006V19.88H800.91V26.6H789.006V51.752C789.006 54.12 789.582 55.912 790.734 57.128C791.886 58.28 793.646 58.856 796.014 58.856C796.782 58.856 797.646 58.824 798.606 58.76C799.566 58.696 800.334 58.6 800.91 58.472V64.808C800.206 65.064 799.246 65.256 798.03 65.384C796.878 65.512 795.726 65.576 794.574 65.576ZM812.428 65V19.88H820.204V65H812.428ZM816.268 9.896C814.86 9.896 813.708 9.48 812.812 8.648C811.916 7.752 811.468 6.632 811.468 5.288C811.468 3.944 811.916 2.856 812.812 2.024C813.708 1.192 814.86 0.775997 816.268 0.775997C817.74 0.775997 818.924 1.192 819.82 2.024C820.716 2.856 821.164 3.944 821.164 5.288C821.164 6.632 820.716 7.752 819.82 8.648C818.924 9.48 817.74 9.896 816.268 9.896ZM848.933 65L830.501 19.88H838.853L853.156 56.84L867.461 19.88H875.812L857.381 65H848.933ZM903.296 65.96C898.816 65.96 894.784 65.032 891.2 63.176C887.616 61.32 884.8 58.664 882.752 55.208C880.704 51.688 879.68 47.432 879.68 42.44C879.68 37.64 880.672 33.48 882.656 29.96C884.64 26.44 887.328 23.72 890.72 21.8C894.112 19.88 897.888 18.92 902.048 18.92C906.464 18.92 910.272 19.784 913.472 21.512C916.672 23.24 919.136 25.576 920.864 28.52C922.592 31.4 923.456 34.696 923.456 38.408C923.456 39.432 923.296 40.584 922.976 41.864C922.72 43.08 922.368 44.072 921.92 44.84H887.648C887.968 47.912 888.8 50.536 890.144 52.712C891.552 54.824 893.44 56.424 895.808 57.512C898.176 58.6 900.896 59.144 903.968 59.144C906.976 59.144 909.6 58.696 911.84 57.8C914.144 56.84 916.352 55.496 918.464 53.768L921.536 59.624C919.104 61.736 916.352 63.336 913.28 64.424C910.208 65.448 906.88 65.96 903.296 65.96ZM887.648 38.312H915.392C915.456 38.184 915.488 38.056 915.488 37.928C915.488 37.8 915.488 37.608 915.488 37.352C915.488 35.048 915.008 33.032 914.048 31.304C913.088 29.512 911.616 28.136 909.632 27.176C907.712 26.216 905.28 25.736 902.336 25.736C900.032 25.736 897.856 26.248 895.808 27.272C893.76 28.232 892.032 29.64 890.624 31.496C889.216 33.352 888.224 35.624 887.648 38.312ZM951.638 65.96C948.182 65.96 944.982 65.448 942.038 64.424C939.094 63.336 936.214 61.768 933.398 59.72L936.95 53.384C939.702 55.304 942.23 56.744 944.534 57.704C946.902 58.664 949.302 59.144 951.734 59.144C955.318 59.144 958.006 58.6 959.798 57.512C961.59 56.36 962.486 54.696 962.486 52.52C962.486 50.728 961.942 49.416 960.854 48.584C959.83 47.688 957.974 46.984 955.286 46.472L947.126 44.936C943.03 44.168 939.958 42.792 937.91 40.808C935.862 38.824 934.838 36.264 934.838 33.128C934.838 30.568 935.478 28.232 936.758 26.12C938.102 23.944 940.054 22.216 942.614 20.936C945.174 19.592 948.374 18.92 952.214 18.92C955.478 18.92 958.518 19.432 961.334 20.456C964.214 21.416 966.774 22.728 969.014 24.392L965.558 30.536C963.638 29.128 961.59 27.976 959.414 27.08C957.238 26.184 954.934 25.736 952.502 25.736C949.494 25.736 947.126 26.28 945.398 27.368C943.67 28.392 942.806 30.024 942.806 32.264C942.806 33.736 943.318 34.888 944.342 35.72C945.366 36.552 947.094 37.192 949.526 37.64L957.686 39.176C961.782 39.944 964.918 41.288 967.094 43.208C969.334 45.128 970.454 47.976 970.454 51.752C970.454 55.912 968.854 59.336 965.654 62.024C962.454 64.648 957.782 65.96 951.638 65.96Z" fill="url(#paint0_linear_120_52)"/>
</g>
<defs>
<filter id="filter0_d_120_52" x="0.871948" y="0.296021" width="973.582" height="90.176" filterUnits="userSpaceOnUse" color-interpolation-filters="sRGB">
<feFlood flood-opacity="0" result="BackgroundImageFix"/>
<feColorMatrix in="SourceAlpha" type="matrix" values="0 0 0 0 0 0 0 0 0 0 0 0 0 0 0 0 0 0 127 0" result="hardAlpha"/>
<feOffset dy="4"/>
<feGaussianBlur stdDeviation="2"/>
<feComposite in2="hardAlpha" operator="out"/>
<feColorMatrix type="matrix" values="0 0 0 0 0 0 0 0 0 0 0 0 0 0 0 0 0 0 0.25 0"/>
<feBlend mode="normal" in2="BackgroundImageFix" result="effect1_dropShadow_120_52"/>
<feBlend mode="normal" in="SourceGraphic" in2="effect1_dropShadow_120_52" result="shape"/>
</filter>
<linearGradient id="paint0_linear_120_52" x1="7" y1="46.9999" x2="958" y2="51.4998" gradientUnits="userSpaceOnUse">
<stop stop-color="#B0B0B0"/>
<stop offset="0.509" stop-color="white"/>
<stop offset="1" stop-color="#B0B0B0"/>
</linearGradient>
</defs>
</svg>
